<mxfile host="app.diagrams.net" modified="2023-12-21T02:43:40.185Z" agent="Mozilla/5.0 (Windows NT 10.0; Win64; x64) AppleWebKit/537.36 (KHTML, like Gecko) Chrome/120.0.0.0 Safari/537.36" etag="RZDSaarPpPSZ7rvaERqZ" version="22.1.11" type="device">
  <diagram name="Side-1" id="zbdASJEP1JT3Zde92ADc">
    <mxGraphModel dx="1434" dy="738" grid="0" gridSize="10" guides="1" tooltips="1" connect="1" arrows="1" fold="1" page="1" pageScale="1" pageWidth="827" pageHeight="1169" background="#ffffff" math="0" shadow="0">
      <root>
        <mxCell id="0" />
        <mxCell id="1" parent="0" />
        <mxCell id="nIXFCDTlyxW-PsFjP-wB-1" value="" style="ellipse;whiteSpace=wrap;html=1;aspect=fixed;fillColor=#d5e8d4;strokeColor=#82b366;" parent="1" vertex="1">
          <mxGeometry x="120" y="120" width="560" height="560" as="geometry" />
        </mxCell>
        <mxCell id="nIXFCDTlyxW-PsFjP-wB-3" value="&lt;font style=&quot;font-size: 18px;&quot;&gt;Chirp.Web&lt;/font&gt;" style="text;html=1;align=center;verticalAlign=middle;resizable=0;points=[];autosize=1;strokeColor=none;fillColor=none;" parent="1" vertex="1">
          <mxGeometry x="345" y="150" width="110" height="40" as="geometry" />
        </mxCell>
        <mxCell id="nIXFCDTlyxW-PsFjP-wB-4" value="" style="ellipse;whiteSpace=wrap;html=1;aspect=fixed;fillColor=#dae8fc;strokeColor=#6c8ebf;" parent="1" vertex="1">
          <mxGeometry x="200" y="200" width="400" height="400" as="geometry" />
        </mxCell>
        <mxCell id="nIXFCDTlyxW-PsFjP-wB-5" value="&lt;font style=&quot;font-size: 18px;&quot;&gt;Chirp.Core&lt;/font&gt;" style="ellipse;whiteSpace=wrap;html=1;aspect=fixed;fillColor=#f8cecc;strokeColor=#b85450;" parent="1" vertex="1">
          <mxGeometry x="280" y="280" width="240" height="240" as="geometry" />
        </mxCell>
        <mxCell id="nIXFCDTlyxW-PsFjP-wB-6" value="&lt;font style=&quot;font-size: 18px;&quot;&gt;Chirp.Infrastructure&lt;/font&gt;" style="text;html=1;align=center;verticalAlign=middle;resizable=0;points=[];autosize=1;strokeColor=none;fillColor=none;" parent="1" vertex="1">
          <mxGeometry x="305" y="230" width="180" height="40" as="geometry" />
        </mxCell>
        <mxCell id="nIXFCDTlyxW-PsFjP-wB-7" value="&lt;font style=&quot;font-size: 15px;&quot;&gt;DTO&#39;s&lt;/font&gt;" style="text;html=1;strokeColor=none;fillColor=none;align=center;verticalAlign=middle;whiteSpace=wrap;rounded=0;" parent="1" vertex="1">
          <mxGeometry x="370" y="330" width="60" height="30" as="geometry" />
        </mxCell>
        <mxCell id="nIXFCDTlyxW-PsFjP-wB-8" value="&lt;font style=&quot;font-size: 15px;&quot;&gt;Interfaces&lt;/font&gt;" style="text;html=1;strokeColor=none;fillColor=none;align=center;verticalAlign=middle;whiteSpace=wrap;rounded=0;" parent="1" vertex="1">
          <mxGeometry x="370" y="440" width="60" height="30" as="geometry" />
        </mxCell>
        <mxCell id="nIXFCDTlyxW-PsFjP-wB-10" value="&lt;font style=&quot;font-size: 15px;&quot;&gt;DbContext&lt;/font&gt;" style="text;html=1;strokeColor=none;fillColor=none;align=center;verticalAlign=middle;whiteSpace=wrap;rounded=0;" parent="1" vertex="1">
          <mxGeometry x="210" y="385" width="60" height="30" as="geometry" />
        </mxCell>
        <mxCell id="nIXFCDTlyxW-PsFjP-wB-11" value="&lt;font style=&quot;font-size: 15px;&quot;&gt;Repositories&lt;/font&gt;" style="text;html=1;strokeColor=none;fillColor=none;align=center;verticalAlign=middle;whiteSpace=wrap;rounded=0;" parent="1" vertex="1">
          <mxGeometry x="370" y="540" width="60" height="30" as="geometry" />
        </mxCell>
        <mxCell id="nIXFCDTlyxW-PsFjP-wB-12" value="&lt;font style=&quot;font-size: 15px;&quot;&gt;DbInitializer&lt;/font&gt;" style="text;html=1;strokeColor=none;fillColor=none;align=center;verticalAlign=middle;whiteSpace=wrap;rounded=0;" parent="1" vertex="1">
          <mxGeometry x="530" y="385" width="60" height="30" as="geometry" />
        </mxCell>
        <mxCell id="nIXFCDTlyxW-PsFjP-wB-13" value="&lt;font style=&quot;font-size: 15px;&quot;&gt;Razor pages&lt;/font&gt;" style="text;html=1;strokeColor=none;fillColor=none;align=center;verticalAlign=middle;whiteSpace=wrap;rounded=0;" parent="1" vertex="1">
          <mxGeometry x="160" y="520" width="96" height="30" as="geometry" />
        </mxCell>
        <mxCell id="nIXFCDTlyxW-PsFjP-wB-14" value="&lt;font style=&quot;font-size: 15px;&quot;&gt;Program&lt;/font&gt;" style="text;html=1;strokeColor=none;fillColor=none;align=center;verticalAlign=middle;whiteSpace=wrap;rounded=0;" parent="1" vertex="1">
          <mxGeometry x="550" y="520" width="96" height="30" as="geometry" />
        </mxCell>
      </root>
    </mxGraphModel>
  </diagram>
</mxfile>
